HIERARCHY
ROOT Hips
{
	OFFSET -0.179506 -22.333345 2.821913
	CHANNELS 6 Xposition Yposition Zposition Zrotation Yrotation Xrotation 
	JOINT LeftUpLeg
	{
		OFFSET 6.951974 -9.140623 -0.681533
		CHANNELS 3 Zrotation Yrotation Xrotation
		JOINT LeftLeg
		{
			OFFSET 3.427654 -37.519855 -0.449580
			CHANNELS 3 Zrotation Yrotation Xrotation
			JOINT LeftFoot
			{
				OFFSET -1.359570 -39.796059 -4.369333
				CHANNELS 3 Zrotation Yrotation Xrotation
				JOINT LeftToe
				{
					OFFSET 2.635814 -5.579078 11.928840
					CHANNELS 3 Zrotation Yrotation Xrotation
					End Site
					{
						OFFSET 0.000000 0.000000 0.000000
					}
				}
			}
		}
	}
	JOINT RightUpLeg
	{
		OFFSET -6.767048 -9.052170 -0.431982
		CHANNELS 3 Zrotation Yrotation Xrotation
		JOINT RightLeg
		{
			OFFSET -3.829005 -38.256897 -0.885003
			CHANNELS 3 Zrotation Yrotation Xrotation
			JOINT RightFoot
			{
				OFFSET 1.577377 -39.841461 -4.231180
				CHANNELS 3 Zrotation Yrotation Xrotation
				JOINT RightToe
				{
					OFFSET -2.537174 -4.814398 12.334795
					CHANNELS 3 Zrotation Yrotation Xrotation
					End Site
					{
						OFFSET 0.000000 0.000000 0.000000
					}
				}
			}
		}
	}
	JOINT Spine
	{
		OFFSET -0.253288 10.896323 -2.669631
		CHANNELS 3 Zrotation Yrotation Xrotation
		JOINT Spine1
		{
			OFFSET 0.548704 13.518043 0.109247
			CHANNELS 3 Zrotation Yrotation Xrotation
			JOINT Spine2
			{
				OFFSET 0.145701 5.292222 2.542457
				CHANNELS 3 Zrotation Yrotation Xrotation
				JOINT Neck
				{
					OFFSET -0.277840 21.387037 -4.285703
					CHANNELS 3 Zrotation Yrotation Xrotation
					JOINT Head
					{
						OFFSET 0.515184 6.496960 5.134897
						CHANNELS 3 Zrotation Yrotation Xrotation
						End Site
						{
							OFFSET 0.000000 0.000000 0.000000
						}
					}
				}
				JOINT LeftShoulder
				{
					OFFSET 7.884473 12.174932 -3.408961
					CHANNELS 3 Zrotation Yrotation Xrotation
					JOINT LeftArm
					{
						OFFSET 9.097692 3.046888 -0.886815
						CHANNELS 3 Zrotation Yrotation Xrotation
						JOINT LeftForeArm
						{
							OFFSET 25.961220 -1.277207 -2.745643
							CHANNELS 3 Zrotation Yrotation Xrotation
							JOINT LeftHand
							{
								OFFSET 24.923361 0.898606 -0.117091
								CHANNELS 3 Zrotation Yrotation Xrotation
								End Site
								{
									OFFSET 0.000000 0.000000 0.000000
								}
							}
						}
					}
				}
				JOINT RightShoulder
				{
					OFFSET -8.175920 11.883285 -3.861528
					CHANNELS 3 Zrotation Yrotation Xrotation
					JOINT RightArm
					{
						OFFSET -9.601238 3.255117 -0.914307
						CHANNELS 3 Zrotation Yrotation Xrotation
						JOINT RightForeArm
						{
							OFFSET -25.374195 -1.332924 -2.140099
							CHANNELS 3 Zrotation Yrotation Xrotation
							JOINT RightHand
							{
								OFFSET -25.529810 0.777228 -0.555919
								CHANNELS 3 Zrotation Yrotation Xrotation
								End Site
								{
									OFFSET 0.000000 0.000000 0.000000
								}
							}
						}
					}
				}
			}
		}
	}
}
MOTION
Frames: 15
Frame Time: 0.033333
61.607380 75.529556 93.907852 134.481626 1.433440 87.150395 3.183898 -7.445879 -19.108601 -0.336262 -5.431360 19.505256 -8.211031 6.975030 0.674155 nan nan nan -1.076203 3.545996 9.095152 3.242424 21.867107 24.243193 14.207761 14.802311 -1.987829 nan nan nan -0.197790 9.761742 4.745948 3.026476 2.811302 4.505959 0.193000 5.435575 1.313378 8.549408 -2.174509 -6.809839 3.369629 -17.692044 -2.536758 -13.694220 17.750188 0.276000 -67.241380 12.995647 6.035141 -1.579873 -22.999191 5.500232 -5.047787 -16.419931 -28.584658 16.194897 -1.067258 -3.309896 57.475091 19.229312 11.129994 -5.270920 31.529955 -2.366257 8.242376 12.560274 -19.833766 
61.098381 74.758682 93.802856 134.538669 1.305897 87.404549 3.240997 -7.584477 -19.833830 -0.024913 -5.249407 18.976073 -8.513589 6.989658 1.730508 nan nan nan -0.807556 3.999331 8.960298 2.862735 22.718581 23.549940 13.481912 14.828703 -3.218105 nan nan nan -0.120411 9.761923 4.941554 2.879789 2.900810 4.388804 0.173569 5.567950 1.346661 8.239015 -1.969971 -7.069718 3.315677 -17.658498 -2.800117 -13.697296 17.768014 0.107494 -67.664598 13.055716 6.098365 -1.387323 -23.163748 5.434477 -4.814398 -15.873818 -28.342429 16.062401 -0.784291 -3.374844 57.891842 19.640182 11.248638 -5.393476 31.490029 -2.861475 7.880594 12.383932 -20.029015 
60.577961 73.952087 93.695938 134.653851 1.153159 87.561746 3.209021 -7.570617 -20.442311 0.272243 -5.162490 18.389907 -8.762590 6.841117 2.658158 nan nan nan -0.498727 4.372877 8.828227 2.351381 23.043390 23.052067 13.006721 14.422526 -4.773292 nan nan nan -0.049001 9.744977 5.380771 2.684372 3.044031 4.193288 0.139616 5.618782 1.329684 7.985674 -1.785121 -7.490549 3.126376 -17.550170 -2.678849 -13.601721 17.795757 -0.120896 -68.051745 13.129789 6.200985 -1.329231 -23.356944 5.759490 -4.253612 -15.432390 -28.183393 15.941610 -0.380721 -3.500465 58.319903 20.039478 11.308599 -5.598521 31.296972 -3.672327 7.046704 12.549649 -20.087424 
60.051712 73.110802 93.580658 134.925841 0.983503 87.640383 3.070265 -7.351354 -21.022059 0.464393 -5.425077 17.864973 -8.976897 6.510539 3.380789 nan nan nan -0.231363 4.446225 8.552098 1.942478 22.907351 23.031844 12.485759 13.973445 -6.595931 nan nan nan 0.025321 9.625511 6.110790 2.433138 3.130553 3.688535 0.114715 5.729416 1.439943 7.701120 -1.474718 -7.889050 3.002947 -17.651884 -2.563386 -13.461395 17.855155 -0.357644 -68.254144 13.164089 6.413723 -1.507851 -23.599500 6.327985 -3.579528 -15.350780 -28.451755 15.797536 -0.075535 -3.609185 58.703899 20.355843 11.433800 -5.295313 31.385242 -4.006134 5.787815 12.622989 -21.255445 
59.533577 72.272850 93.483627 135.417927 0.842709 87.656391 2.930899 -7.232260 -21.457995 0.613727 -5.930148 17.149321 -9.346578 6.095837 4.021860 nan nan nan 0.008442 4.408000 8.260587 1.665126 22.256925 23.199931 11.616130 13.691950 -8.420879 nan nan nan 0.125663 9.414858 6.988989 2.187777 3.127208 3.077991 0.127256 5.809495 1.582099 7.342691 -1.125325 -8.176314 2.977522 -17.787576 -2.749150 -13.416400 17.988608 -0.601338 -68.426985 13.110603 6.527335 -1.471097 -23.774146 6.549570 -3.622020 -15.363081 -28.921641 15.701052 0.091589 -3.727564 59.028023 20.663798 11.614169 -4.798647 31.570245 -3.829295 4.965647 12.614627 -22.769179 
59.012100 71.490791 93.401031 135.777930 0.782312 87.597344 2.832886 -6.868267 -21.653818 0.879692 -6.164175 16.203809 -10.031929 5.489676 4.724747 nan nan nan 0.181023 4.341442 7.950344 1.467531 21.424835 23.356121 10.666393 13.637709 -9.872811 nan nan nan 0.451187 9.192247 7.793281 1.945316 3.173879 2.753379 0.081769 5.916962 1.640053 6.944790 -0.792877 -8.457841 2.894403 -17.838439 -2.953435 -13.435913 18.002462 -0.867953 -68.709215 13.052210 6.305671 -1.283145 -23.768944 6.390766 -4.077474 -15.573612 -28.876432 15.536536 0.306835 -3.763945 59.429877 21.015461 11.671813 -4.891859 31.769099 -3.577391 3.715221 12.542165 -22.654196 
58.466801 70.703949 93.334045 136.036685 0.818540 87.672293 2.805296 -6.272874 -21.955406 1.156282 -6.381579 15.169617 -10.847222 4.960629 5.405360 nan nan nan 0.350467 4.109284 7.304990 1.281703 20.749791 23.643662 9.692214 13.855766 -11.070706 nan nan nan 0.934684 8.978663 8.356770 1.687753 3.234868 2.705435 0.000086 6.060893 1.545445 6.491121 -0.538641 -8.599426 2.865481 -17.745343 -3.355802 -13.559391 17.867552 -1.280464 -68.832076 13.247116 5.999126 -1.316066 -23.993746 6.405930 -4.561610 -15.467088 -28.022553 15.306863 0.662994 -3.708032 59.799419 21.337860 11.535263 -5.110219 32.027153 -3.551632 2.554215 12.237613 -21.894456 
57.926819 69.896812 93.263092 136.413530 0.883825 87.620737 2.735196 -5.695426 -22.206688 1.362029 -6.893380 14.246280 -11.364238 4.457453 5.865222 nan nan nan 0.517122 3.689539 6.752885 1.159863 20.238564 23.940173 8.580246 14.013395 -12.123521 nan nan nan 1.453814 8.752230 9.169810 1.411396 3.251816 2.435794 -0.048019 6.134774 1.653453 5.984938 -0.343722 -9.067296 2.847400 -17.572530 -3.554628 -13.592364 17.629019 -1.723530 -69.152502 13.502549 5.646150 -1.092298 -24.435558 6.487320 -5.062265 -15.306236 -27.236291 14.998896 1.138330 -3.907667 60.273197 21.556742 11.263650 -5.098394 32.095208 -3.444922 4.092616 12.040985 -21.903778 
57.412865 69.107315 93.208908 136.878980 0.971790 87.406116 2.701535 -5.153121 -22.213041 1.518681 -7.228283 13.259242 -11.675743 3.667417 5.955559 nan nan nan 0.673487 3.195214 6.420605 1.052059 19.651668 24.037629 7.876145 14.200588 -12.738540 nan nan nan 1.963521 8.513563 10.251531 1.168599 3.243209 2.073227 -0.063491 6.182368 1.693630 5.540635 -0.097406 -9.431158 2.722959 -17.428323 -3.754755 -13.559850 17.550239 -1.912576 -69.557874 13.502657 5.355388 -0.680843 -24.820959 5.998243 -5.094007 -15.907127 -28.157480 14.802116 1.411806 -4.128067 60.604534 21.960890 11.214261 -4.762792 31.965383 -3.025107 4.847889 12.236570 -22.104030 
56.861794 68.310753 93.185120 137.214788 1.028503 87.512592 2.663243 -4.393843 -22.500308 1.641548 -7.408871 12.228869 -11.909160 2.766253 5.882787 nan nan nan 0.576074 2.686880 5.561558 1.187742 19.035682 24.279292 7.642846 14.688442 -12.953160 nan nan nan 2.431469 8.304824 10.899848 0.928964 3.294531 1.861198 -0.116279 6.274018 1.672392 5.120735 0.153263 -9.552682 2.563065 -17.165782 -4.181238 -13.728029 17.503245 -2.091139 -69.597628 13.494136 5.262778 -0.762978 -25.047953 6.258982 -4.233948 -15.953614 -27.630512 14.710483 1.682443 -4.041516 60.542616 22.569321 11.183316 -4.032400 31.924970 -2.543719 3.713167 12.584103 -22.375742 
56.287750 67.489975 93.194290 137.748081 1.138544 87.788808 2.702680 -3.615225 -22.987812 1.596385 -7.622290 11.323422 -12.312450 2.010605 5.712633 nan nan nan 0.474127 2.119516 4.542415 1.414049 18.419691 24.493257 7.420773 15.174148 -13.112776 nan nan nan 2.951661 7.984190 11.318040 0.717633 3.278436 1.712971 -0.225660 6.373094 1.678817 4.617651 0.479062 -9.810316 2.470816 -16.947532 -4.552001 -13.871668 17.489495 -2.319945 -69.532824 13.399104 5.156900 -0.829027 -25.228592 6.289105 -4.171086 -16.631992 -28.545596 14.784296 1.981571 -3.709118 60.232764 23.252892 11.031087 -3.364121 32.052941 -1.857061 3.228497 12.827502 -22.767912 
55.766079 66.632927 93.209999 138.629555 1.284524 87.910007 2.803178 -3.028372 -23.394727 1.402356 -7.867833 10.712039 -12.878308 1.353331 5.550876 nan nan nan 0.498959 1.442417 3.832845 1.616813 17.796184 24.561918 6.940965 15.415360 -13.432791 nan nan nan 3.302353 7.752714 11.946879 0.627575 3.131039 1.353069 -0.177806 6.309714 1.827925 4.194114 0.902345 -10.391118 2.335562 -16.940875 -4.543457 -13.818893 17.352080 -2.513443 -69.624485 13.337880 4.990305 -0.968623 -25.511196 6.223329 -4.166157 -17.492186 -29.722852 14.911359 2.235317 -3.587129 60.036542 23.705362 10.820369 -2.952980 32.261121 -1.292470 3.035257 13.018993 -22.863284 
55.307301 65.777512 93.252640 139.583947 1.413021 87.892491 2.879219 -2.417370 -23.619899 1.190061 -8.018281 10.114351 -13.095599 0.592441 5.236597 nan nan nan 0.516607 0.630117 3.350874 1.850316 17.234817 24.523952 6.546631 15.613613 -13.563691 nan nan nan 3.433722 7.660417 12.666315 0.637268 2.948840 1.134521 0.037004 6.234778 1.819386 3.771227 1.310066 -10.933417 2.195776 -16.902905 -4.557851 -13.663415 17.108483 -2.668597 -69.811264 13.374159 4.884106 -1.204085 -25.988912 6.546921 -3.439410 -17.703000 -30.075571 14.966805 2.487279 -3.598886 59.892466 23.866730 10.506718 -2.502111 32.597489 -0.887470 2.459667 13.083520 -22.659501 
54.874874 64.969566 93.322754 140.591322 1.535380 87.825084 2.889377 -1.786551 -23.714448 0.975740 -7.970500 9.392718 -13.384280 -0.141881 4.848444 nan nan nan 0.506512 -0.236380 2.994544 2.091227 16.613497 24.379360 6.626806 15.989218 -13.351544 nan nan nan 3.588846 7.522290 13.465066 0.640504 2.768022 0.818894 0.207116 6.150677 1.802257 3.449133 1.652401 -11.486760 1.951914 -16.910856 -4.423236 -13.571197 17.068245 -2.852096 -69.923195 13.351689 4.764216 -1.226121 -26.419175 6.925611 -3.248426 -17.875039 -30.037387 15.057955 2.661955 -3.668059 59.825878 24.019508 10.396413 -2.038511 32.746674 -0.556895 2.222134 13.223146 -22.673841 
54.434464 64.199516 93.402214 141.674562 1.621237 87.901845 2.896097 -1.368395 -23.870391 0.728647 -7.701865 8.568691 -13.870223 -0.505730 4.542074 nan nan nan 0.419459 -0.903632 2.536774 2.368240 15.883232 24.180273 6.693615 16.238477 -13.177821 nan nan nan 3.723253 7.380741 13.981944 0.695493 2.610507 0.600104 0.321315 6.029616 1.842929 3.232833 2.043105 -12.170363 1.613997 -16.941789 -4.235553 -13.582709 17.124680 -3.005271 -69.859415 13.220766 4.924421 -1.313181 -26.876169 7.251558 -2.605468 -18.117742 -30.302027 15.216465 2.772511 -3.653037 59.664287 24.218289 10.677023 -1.661804 32.872731 -0.263613 1.424409 13.450086 -23.256049 
